<?xml version="1.0" encoding="utf-8"?>
<!-- Generator: Adobe Illustrator 24.0.1, SVG Export Plug-In . SVG Version: 6.00 Build 0)  -->
<svg version="1.1" xmlns="http://www.w3.org/2000/svg" xmlns:xlink="http://www.w3.org/1999/xlink" x="0px" y="0px"
	 viewBox="0 0 1779 271" style="enable-background:new 0 0 1779 271;" xml:space="preserve">
<style type="text/css">
	.st0{fill:#FFFFFF;}
	.st1{fill:none;}
</style>
<g id="Layer_1">
	<g>
		<rect x="0.5" y="0.5" width="1778" height="270"/>
		<path d="M1778,1v269H1V1H1778 M1779,0H0v271h1779V0L1779,0z"/>
	</g>
</g>
<g id="Layer_2">
	<polygon class="st0" points="744.5,178.7 769.5,173.7 889.4,52.6 1010,173.2 1034,179.2 899,43.2 931,10.2 921,0.2 889,33.2 
		856,0.2 846,10.2 879,43.2 	"/>
	<polygon class="st0" points="773.9,174.2 799.9,162.2 888.9,72.2 979.9,163.2 1004.9,174.2 889.4,57.8 	"/>
	<polygon class="st0" points="1122,180.2 1146.4,173.4 1260,57.2 1381,179.2 1406,185.2 1261,40.2 	"/>
	<polygon class="st0" points="1232,90.2 1260,62.2 1377,179.2 1313,171.2 	"/>
	<polygon class="st0" points="1086,171.2 1118,179.2 1258,38.2 1207,49.2 	"/>
	<polygon class="st0" points="1495,178.2 1518,174.2 1634,58.2 1754,178.2 1779,185.2 1634,39.2 	"/>
	<polygon class="st0" points="1634,63.2 1582,115.2 1637,171.2 1750,179.2 	"/>
	<polygon class="st0" points="1630,39.2 1527,51.2 1408,170.2 1491,177.2 	"/>
	<polygon class="st0" points="284,178.2 261,174.2 145,58.2 25,178.2 0,185.2 145,39.2 	"/>
	<polygon class="st0" points="657,180.2 632.6,173.4 519,57.2 398,179.2 373,185.2 518,40.2 	"/>
	<polygon class="st0" points="547,90.2 519,62.2 402,179.2 466,171.2 	"/>
	<polygon class="st0" points="693,171.2 661,179.2 521,38.2 572,49.2 	"/>
	<polygon class="st0" points="145,63.2 197,115.2 142,171.2 29,179.2 	"/>
	<polygon class="st0" points="149,39.2 252,51.2 371,170.2 288,177.2 	"/>
	<g>
		<path class="st0" d="M670.1,240h5.5l13.1,23.5l-0.5,0.5v-24h4.9v30.5h-5.5l-13.1-23.1l0.5-0.5v23.7h-4.9V240z"/>
		<path class="st0" d="M746.7,269.9c-1.3-0.7-2.3-1.6-3-2.9c-0.8-1.3-1.3-2.8-1.4-4.5v0h5v0c0.1,1.1,0.5,2,1.2,2.6
			c0.7,0.6,1.5,0.9,2.6,0.9c1.2,0,2.1-0.4,2.8-1.2c0.7-0.8,1-1.9,1-3.3v-2.6c0-1.4-0.3-2.5-0.9-3.3c-0.6-0.8-1.5-1.2-2.6-1.2
			c-0.8,0-1.5,0.2-2.1,0.6c-0.6,0.4-1.1,1-1.5,1.8h-4.6V240h16v4.8h-11v6.1c0.5-0.4,1.1-0.8,1.8-1c0.7-0.2,1.4-0.4,2.1-0.4
			c1.7,0,3.1,0.4,4.3,1.1c1.2,0.7,2.1,1.8,2.7,3.2c0.6,1.4,0.9,3.1,0.9,5.1v2.6c0,2-0.3,3.7-1,5.1c-0.7,1.4-1.7,2.5-3,3.2
			c-1.3,0.7-2.9,1.1-4.7,1.1C749.3,270.8,747.9,270.5,746.7,269.9z"/>
		<path class="st0" d="M810.4,268.6c-1.5-1.5-2.3-3.7-2.3-6.4v-13.9c0-2.7,0.8-4.9,2.3-6.4c1.5-1.5,3.7-2.3,6.6-2.3
			c2.9,0,5.1,0.8,6.6,2.3c1.5,1.5,2.3,3.6,2.3,6.4v13.9c0,2.7-0.8,4.9-2.3,6.4c-1.5,1.5-3.7,2.3-6.6,2.3
			C814.2,270.8,812,270.1,810.4,268.6z M820,264.9c0.6-0.8,0.9-1.9,0.9-3.4V249c0-1.5-0.3-2.6-0.9-3.4c-0.6-0.8-1.6-1.2-3-1.2
			s-2.3,0.4-3,1.2c-0.6,0.8-0.9,1.9-0.9,3.4v12.4c0,1.5,0.3,2.6,0.9,3.4c0.6,0.8,1.6,1.2,3,1.2S819.4,265.6,820,264.9z"/>
		<path class="st0" d="M878.7,269.5c-1.6-0.9-2.9-2.2-3.8-3.9c-0.9-1.7-1.3-3.7-1.3-6.1v-8.4c0-2.3,0.4-4.4,1.3-6.1
			c0.9-1.7,2.1-3,3.8-3.9c1.6-0.9,3.6-1.4,5.8-1.4c1.8,0,3.5,0.4,5,1.2c1.5,0.8,2.7,1.9,3.7,3.4c1,1.5,1.7,3.2,2,5.2H890
			c-0.3-1-0.7-1.8-1.2-2.6c-0.5-0.7-1.2-1.3-1.9-1.7c-0.7-0.4-1.6-0.6-2.4-0.6c-1.2,0-2.2,0.3-3,0.8c-0.8,0.5-1.5,1.3-2,2.2
			c-0.5,1-0.7,2.1-0.7,3.4v8.4c0,1.3,0.2,2.5,0.7,3.4s1.1,1.7,2,2.2c0.8,0.5,1.9,0.8,3,0.8c0.9,0,1.7-0.2,2.4-0.6
			c0.7-0.4,1.4-0.9,1.9-1.7c0.5-0.7,0.9-1.6,1.2-2.6h5.2c-0.4,2-1.1,3.8-2,5.2c-1,1.5-2.2,2.6-3.7,3.4c-1.5,0.8-3.1,1.2-5,1.2
			C882.2,270.8,880.3,270.4,878.7,269.5z"/>
		<path class="st0" d="M950.7,240h3.7l11.5,30.5h-5.4l-7.9-22.7l-7.9,22.7h-5.4L950.7,240z M944.6,259.9h16.1v4.8h-16.1V259.9z"/>
		<path class="st0" d="M1033.1,240h5.8v30.5h-4.7v-23.3l0.2,1.3l-6.7,18.1h-4l-6.7-17.7l0.2-1.8v23.3h-4.7V240h5.8l7.4,20.4
			L1033.1,240z"/>
		<path class="st0" d="M1088.6,240h5v30.5h-5V240z M1091.1,253.9h9.8c0.8,0,1.5-0.2,2.1-0.6c0.6-0.4,1.1-0.9,1.4-1.6
			c0.3-0.7,0.5-1.5,0.5-2.4c0-0.9-0.2-1.7-0.5-2.4s-0.8-1.2-1.4-1.6s-1.3-0.6-2.1-0.6h-9.8V240h9.6c1.9,0,3.5,0.4,4.9,1.2
			c1.4,0.8,2.5,1.9,3.3,3.3s1.2,3.1,1.2,4.9s-0.4,3.5-1.2,4.9c-0.8,1.4-1.9,2.5-3.3,3.3c-1.4,0.8-3.1,1.2-4.9,1.2h-9.6V253.9z"/>
	</g>
	<g>
		<path d="M903.3,35.5c-0.4,0.1-0.9,0.2-1.4,0.1c-0.5-0.1-0.9-0.3-1.4-0.6l0,0l1.1-1.1l0,0c0.3,0.2,0.6,0.3,1,0.3
			c0.3,0,0.7-0.2,0.9-0.5c0.3-0.3,0.5-0.7,0.4-1.1c0-0.4-0.3-0.8-0.7-1.2l-0.6-0.6c-0.4-0.4-0.8-0.6-1.2-0.7c-0.4,0-0.8,0.1-1.1,0.4
			c-0.2,0.2-0.3,0.4-0.4,0.7c-0.1,0.3-0.1,0.6,0,0.9l-1,1l-4-4l3.8-3.8l1,1L897,29l1.7,1.7c0-0.2,0.1-0.5,0.2-0.7
			c0.1-0.2,0.2-0.4,0.4-0.6c0.4-0.4,0.9-0.7,1.4-0.8c0.5-0.1,1-0.1,1.5,0.1s1,0.5,1.5,1l0.6,0.6c0.5,0.5,0.8,1,1,1.5
			c0.2,0.5,0.2,1,0.1,1.5c-0.1,0.5-0.4,1-0.9,1.4C904.1,35.1,903.7,35.4,903.3,35.5z"/>
		<path d="M908.7,29.4c-0.7,0-1.4-0.4-2.1-1l-3.4-3.4c-0.7-0.7-1-1.4-1-2.1c0-0.7,0.3-1.5,1-2.2c0.7-0.7,1.4-1.1,2.2-1
			c0.7,0,1.4,0.4,2.1,1l3.4,3.4c0.7,0.7,1,1.4,1,2.1c0,0.7-0.3,1.5-1,2.2C910.2,29.1,909.4,29.4,908.7,29.4z M910.4,26.3
			c0-0.4-0.2-0.7-0.6-1.1l-3.4-3.4c-0.4-0.4-0.7-0.6-1.1-0.6c-0.4,0-0.7,0.2-1.1,0.5s-0.6,0.8-0.5,1.1s0.2,0.7,0.6,1.1l3.4,3.4
			c0.4,0.4,0.7,0.6,1.1,0.6s0.7-0.2,1.1-0.5C910.2,27,910.4,26.6,910.4,26.3z"/>
		<path d="M910.1,19.1c-0.5,0-1-0.3-1.5-0.7c-0.5-0.5-0.7-1-0.7-1.5c0-0.5,0.2-1,0.7-1.5c0.5-0.5,1-0.7,1.5-0.7c0.5,0,1,0.3,1.5,0.8
			c0.5,0.5,0.7,1,0.7,1.5c0,0.5-0.2,1-0.7,1.5C911.2,18.9,910.7,19.1,910.1,19.1z M911.1,16.9c0-0.2-0.1-0.5-0.4-0.7
			c-0.2-0.2-0.5-0.3-0.7-0.3c-0.2,0-0.5,0.1-0.7,0.3c-0.2,0.2-0.3,0.4-0.3,0.7c0,0.2,0.1,0.5,0.4,0.7c0.2,0.2,0.5,0.4,0.7,0.4
			c0.2,0,0.5-0.1,0.7-0.3C911,17.4,911.1,17.2,911.1,16.9z"/>
		<path d="M912,12l1-1l9.5,2.1l0,0.3l-6-6l1-1l7.5,7.5l-1,1l-9.4-2.1l0-0.3l5.9,5.9l-1,1L912,12z"/>
	</g>
	<g>
		<path d="M853.7,15.1c-0.2-0.5-0.2-1-0.1-1.5c0.1-0.5,0.4-1,0.8-1.4l0.1-0.1c0.4-0.4,0.8-0.6,1.3-0.8c0.5-0.1,1-0.1,1.5,0
			c-0.1-0.4-0.1-0.8,0-1.3c0.1-0.4,0.3-0.8,0.6-1.1l0.2-0.2c0.4-0.4,0.8-0.7,1.3-0.8c0.5-0.1,1-0.1,1.4,0.1c0.5,0.2,0.9,0.4,1.4,0.9
			c0.4,0.4,0.7,0.9,0.9,1.4c0.2,0.5,0.2,1,0.1,1.4c-0.1,0.5-0.4,0.9-0.8,1.3l-0.2,0.2c-0.3,0.3-0.7,0.5-1.1,0.6
			c-0.4,0.1-0.9,0.1-1.3,0c0.1,0.5,0.1,1,0,1.5c-0.1,0.5-0.4,1-0.8,1.3l-0.1,0.1c-0.4,0.4-0.9,0.7-1.4,0.8c-0.5,0.1-1,0.1-1.5-0.1
			c-0.5-0.2-1-0.5-1.5-0.9C854.2,16.1,853.9,15.6,853.7,15.1z M856.5,16.1c0.3,0.1,0.6,0.1,0.8,0c0.3-0.1,0.5-0.2,0.8-0.5l0.1-0.1
			c0.2-0.2,0.4-0.5,0.5-0.8c0.1-0.3,0.1-0.6,0-0.8c-0.1-0.3-0.3-0.5-0.5-0.8c-0.2-0.2-0.5-0.4-0.8-0.5s-0.6-0.1-0.8,0
			c-0.3,0.1-0.5,0.2-0.8,0.5l-0.1,0.1c-0.2,0.2-0.4,0.5-0.4,0.8c-0.1,0.3-0.1,0.6,0,0.8c0.1,0.3,0.3,0.5,0.5,0.8
			S856.2,16,856.5,16.1z M859.8,12.6c0.3,0.1,0.5,0.1,0.8,0c0.3-0.1,0.5-0.2,0.7-0.5l0.1-0.1c0.2-0.2,0.4-0.4,0.4-0.7s0.1-0.5,0-0.8
			c-0.1-0.3-0.2-0.5-0.4-0.7c-0.2-0.2-0.4-0.4-0.7-0.4c-0.2-0.1-0.5-0.1-0.8,0c-0.3,0.1-0.5,0.2-0.7,0.4l-0.1,0.1
			c-0.2,0.2-0.4,0.5-0.4,0.7s-0.1,0.5,0,0.8c0.1,0.3,0.2,0.5,0.4,0.7C859.3,12.4,859.5,12.5,859.8,12.6z"/>
		<path class="st1" d="M859.8,19.3l1.1,1.1l-1.7,1.7l-2.3,0L859.8,19.3z"/>
		<path d="M863.4,25.1l-1.1-1.1l6.4-6.4l-1.7-0.4l1.1-1.1l1.8,0.4l1.1,1.1L863.4,25.1z"/>
		<path d="M870.3,22.2c0-0.5,0.3-1,0.7-1.5c0.5-0.5,1-0.7,1.5-0.7c0.5,0,1,0.2,1.5,0.7c0.5,0.5,0.7,1,0.7,1.5c0,0.5-0.3,1-0.8,1.5
			c-0.5,0.5-1,0.7-1.5,0.7c-0.5,0-1-0.2-1.5-0.7C870.6,23.3,870.3,22.8,870.3,22.2z M872.5,23.2c0.2,0,0.5-0.1,0.7-0.4
			c0.2-0.2,0.3-0.5,0.3-0.7c0-0.2-0.1-0.5-0.3-0.7c-0.2-0.2-0.4-0.3-0.7-0.3c-0.2,0-0.5,0.1-0.7,0.4s-0.4,0.5-0.4,0.7
			c0,0.2,0.1,0.5,0.3,0.7C872.1,23.1,872.3,23.2,872.5,23.2z"/>
		<path d="M877.5,24.1l1.1,1.1l-7.5,7.5l-1.1-1.1L877.5,24.1z M871.4,31.2l4.3,4.3l-1,1l-4.3-4.3L871.4,31.2z M874.7,28l3.8,3.8
			l-1,1l-3.8-3.8L874.7,28z M878,24.7l4.3,4.3l-1,1l-4.3-4.3L878,24.7z"/>
	</g>
	<g>
		<path d="M860.7,19.6l1.1,1.1l-0.7,0.7l-1.7-0.5L860.7,19.6z"/>
	</g>
	<g>
	</g>
	<g>
	</g>
	<g>
	</g>
	<g>
	</g>
	<g>
	</g>
	<g>
	</g>
	<g>
	</g>
	<g>
	</g>
	<g>
	</g>
	<g>
	</g>
	<g>
	</g>
	<g>
	</g>
	<g>
	</g>
	<g>
	</g>
	<g>
	</g>
</g>
</svg>
